<?xml version="1.0" encoding="UTF-8"?>
<svg id="Layer_2" data-name="Layer 2" xmlns="http://www.w3.org/2000/svg" viewBox="0 0 58.36 70.86">
  <defs>
    <style>
      .cls-1 {
        fill: #744400;
      }

      .cls-2, .cls-3, .cls-4, .cls-5 {
        stroke-width: 1.5px;
      }

      .cls-2, .cls-3, .cls-4, .cls-5, .cls-6 {
        stroke-miterlimit: 10;
      }

      .cls-2, .cls-3, .cls-7 {
        fill: #fff;
      }

      .cls-2, .cls-6 {
        stroke: #fff;
      }

      .cls-3 {
        stroke: #744400;
      }

      .cls-4 {
        fill: #f4ee70;
        stroke: #aa7f28;
      }

      .cls-5 {
        fill: #83c557;
        stroke: #456a39;
      }

      .cls-8 {
        fill: #64431b;
      }

      .cls-6 {
        fill: #1a71aa;
        stroke-width: .75px;
      }
    </style>
  </defs>
  <g id="Layer_1-2" data-name="Layer 1">
    <g>
      <rect class="cls-2" x="31.18" y=".75" width="1.06" height="42.36" transform="translate(63.42 43.86) rotate(-180)"/>
      <g>
        <g>
          <path class="cls-5" d="M48.07,34.21s-.1-4.34,1.99-5.06c1.71-.59,7.22.38,7.44,4.71l-2.07,2.27s-1.03-1.39-2.86-2.73c-1.94-1.42-4.5.82-4.5.82Z"/>
          <polygon class="cls-4" points="47.1 43.11 43.1 36.55 37.17 48.04 35.91 50.6 35.91 50.6 39.06 68.01 42.48 65.78 41.25 50.77 47.1 43.11"/>
          <g>
            <polygon class="cls-4" points="27.37 46.53 21.2 51.63 18.92 49.59 24.75 40.88 27.37 46.53"/>
            <polygon class="cls-4" points="19.26 52.99 27.57 62.68 30.06 60.91 21.66 46.48 19.26 52.99"/>
          </g>
          <path class="cls-4" d="M4.32,25.9l6.81-.2,2.25,12.91c-.81,5.05,2.62,9.8,7.67,10.61,1.6.26,3.22.21,4.64-.3h0l8.91-1.46c1.2.95,2.65,1.61,4.26,1.87,6.83,1.1,13.11-5.56,9.87-13.47-.35-.86-.92-1.64-1.62-2.25-3.23-2.8-6.89-3.23-9.91-2.15l-9.6.89c-.6-.39-1.24-.72-1.93-.97l-5.16-10.08c1.2-1.18-1.11-2.29-.66-4.25.12-.54.11-1.1-.14-1.6-3.3-6.68-9.98-2.19-11.93,1.12l-6.74,4.79,3.27,4.54Z"/>
          <polyline class="cls-4" points="16.49 45.58 15.26 48.93 13.19 51.14 10.95 69.81 15.12 68.6 18.32 54.07 28.49 46.45"/>
          <path class="cls-4" d="M40.05,44.51l2.02,5.28.41,3.06h0l13.29,13.76,1.73-4.06-10.11-12.76,2.28-8.73"/>
          <path class="cls-5" d="M17.69,13.49s5.76-.45,6.81,3.68c1.05,4.13,5.12,1.78,5.12,1.78,0,0-1.26,3.74-4.57,2.18,0,0,2.95,5.17,7.13,4,0,0-1.56,3.23-4.84,2.57,0,0,2.71,3.17,5.55,2.55,0,0-7.88,5.5-12.09-2.35-4.22-7.85.76-8.77-3.11-14.41Z"/>
          <path class="cls-4" d="M15.43,13.94h0l3.9-3.35c.12-.1.3.01.26.17l-.76,5.49"/>
          <path class="cls-4" d="M12.5,11.94l.68-2.96s.69.68.7.7l.37,2.45-1.76-.19Z"/>
          <path class="cls-5" d="M16.18,12.82s-1.78-2.31-4.66-1.54c-2.88.77-3.89-.49-3.89-.49,0,0-.5,1.71,2.53,2.69l-1.8.68s3.07,2.29,5.01,1.59c0,0,3.33-.45,2.8-2.93Z"/>
        </g>
        <path class="cls-5" d="M33.24,41.06s.75,3.38.26,7.14h-2.45s.33-4.79-.13-6.17.5.05,1.31-.1c.47-.08,1.01-.87,1.01-.87Z"/>
        <g>
          <line class="cls-8" x1="12.74" y1="19.5" x2="12.5" y2="19.5"/>
          <path class="cls-8" d="M12.5,20.5h.24c.55,0,1-.45,1-1s-.45-1-1-1h-.24c-.55,0-1,.45-1,1s.45,1,1,1Z"/>
        </g>
        <polygon class="cls-3" points="57.49 62.55 54.49 58.77 53.36 64.12 55.77 66.61 57.49 62.55"/>
        <polygon class="cls-3" points="15.6 68.24 16.3 63.47 11.63 66.3 11.46 69.76 15.6 68.24"/>
        <polygon class="cls-3" points="42.77 65.53 41.97 60.77 38.39 64.9 39.3 68.25 42.77 65.53"/>
        <polygon class="cls-3" points="30.06 60.78 28.03 57.69 25.88 60.14 27.62 62.32 30.06 60.78"/>
        <g>
          <path class="cls-1" d="M5.3,22.58s-.11-.76-.98-.82"/>
          <path class="cls-1" d="M4.8,22.66l.99-.15c-.06-.4-.43-1.18-1.45-1.25l-.06,1c.41.03.5.29.52.4Z"/>
        </g>
        <path class="cls-6" d="M37.11,30.55s4.03,5.51,1.42,11.64h-13.16s1.79-7.82-.7-10.07,2.66.08,7.05-.16c2.54-.14,5.4-1.41,5.4-1.41Z"/>
        <path class="cls-7" d="M36.74,42.39c2.13-8.22-1.01-11.24-1.14-11.36l-1.02,1.1.51-.55-.52.54s2.6,2.63.71,9.89l1.45.38Z"/>
        <path class="cls-7" d="M28.8,42.39c2.13-8.22-1-11.24-1.14-11.36l-1.02,1.1.51-.55-.52.54s2.6,2.63.71,9.89l1.45.38Z"/>
      </g>
    </g>
  </g>
</svg>