<?xml version="1.0" encoding="UTF-8"?>
<svg id="Layer_2" data-name="Layer 2" xmlns="http://www.w3.org/2000/svg" viewBox="0 0 115.87 75.19">
  <defs>
    <style>
      .cls-1, .cls-2, .cls-3, .cls-4, .cls-5 {
        stroke-miterlimit: 10;
      }

      .cls-1, .cls-2, .cls-4 {
        stroke: #fff;
      }

      .cls-1, .cls-4 {
        fill: #1a71aa;
      }

      .cls-2 {
        fill: #ed1c24;
      }

      .cls-3 {
        fill: #fff;
      }

      .cls-3, .cls-5 {
        stroke: #e78c24;
        stroke-width: 2px;
      }

      .cls-4 {
        stroke-width: .75px;
      }

      .cls-5 {
        fill: none;
      }
    </style>
  </defs>
  <g id="Layer_1-2" data-name="Layer 1">
    <g>
      <rect class="cls-1" x=".65" y="68.75" width="114.57" height="5.94"/>
      <g>
        <polygon class="cls-3" points="57.93 1.07 110.37 20.79 21.66 20.79 5.5 20.79 57.93 1.07"/>
        <polygon class="cls-2" points="57.93 1.07 91.33 20.79 34.83 20.79 24.54 20.79 57.93 1.07"/>
        <polygon class="cls-1" points="57.93 1.07 74.97 20.79 46.14 20.79 40.89 20.79 57.93 1.07"/>
        <polygon class="cls-5" points="57.93 1.07 110.37 20.79 21.66 20.79 5.5 20.79 57.93 1.07"/>
        <g>
          <path class="cls-4" d="M85.43,20.97c.03,1.85,1.55,3.34,3.42,3.34s3.4-1.49,3.42-3.34h-6.84Z"/>
          <path class="cls-4" d="M92.25,20.97c.03,1.85,1.55,3.34,3.42,3.34s3.4-1.49,3.42-3.34h-6.84Z"/>
          <path class="cls-4" d="M99.06,20.97c.03,1.85,1.55,3.34,3.42,3.34s3.4-1.49,3.42-3.34h-6.84Z"/>
          <path class="cls-4" d="M105.87,20.97c.03,1.85,1.55,3.34,3.42,3.34s3.4-1.49,3.42-3.34h-6.84Z"/>
          <path class="cls-4" d="M58.15,20.97c.03,1.85,1.55,3.34,3.42,3.34s3.4-1.49,3.42-3.34h-6.84Z"/>
          <path class="cls-4" d="M64.96,20.97c.03,1.85,1.55,3.34,3.42,3.34s3.4-1.49,3.42-3.34h-6.84Z"/>
          <path class="cls-4" d="M71.78,20.97c.03,1.85,1.55,3.34,3.42,3.34s3.4-1.49,3.42-3.34h-6.84Z"/>
          <path class="cls-4" d="M78.59,20.97c.03,1.85,1.55,3.34,3.42,3.34s3.4-1.49,3.42-3.34h-6.84Z"/>
        </g>
        <g>
          <path class="cls-4" d="M30.87,20.97c.03,1.85,1.55,3.34,3.42,3.34s3.4-1.49,3.42-3.34h-6.84Z"/>
          <path class="cls-4" d="M37.68,20.97c.03,1.85,1.55,3.34,3.42,3.34s3.4-1.49,3.42-3.34h-6.84Z"/>
          <path class="cls-4" d="M44.49,20.97c.03,1.85,1.55,3.34,3.42,3.34s3.4-1.49,3.42-3.34h-6.84Z"/>
          <path class="cls-4" d="M51.31,20.97c.03,1.85,1.55,3.34,3.42,3.34s3.4-1.49,3.42-3.34h-6.84Z"/>
          <path class="cls-4" d="M3.58,20.97c.03,1.85,1.55,3.34,3.42,3.34s3.4-1.49,3.42-3.34H3.58Z"/>
          <path class="cls-4" d="M10.4,20.97c.03,1.85,1.55,3.34,3.42,3.34s3.4-1.49,3.42-3.34h-6.84Z"/>
          <path class="cls-4" d="M17.21,20.97c.03,1.85,1.55,3.34,3.42,3.34s3.4-1.49,3.42-3.34h-6.84Z"/>
          <path class="cls-4" d="M24.03,20.97c.03,1.85,1.55,3.34,3.42,3.34s3.4-1.49,3.42-3.34h-6.84Z"/>
        </g>
      </g>
    </g>
  </g>
</svg>