<?xml version="1.0" encoding="UTF-8"?>
<svg id="Layer_2" data-name="Layer 2" xmlns="http://www.w3.org/2000/svg" viewBox="0 0 207.51 207.55">
  <defs>
    <style>
      .cls-1 {
        fill: #f2eb3f;
        stroke: #e15738;
        stroke-width: 3px;
      }

      .cls-1, .cls-2, .cls-3, .cls-4, .cls-5, .cls-6, .cls-7 {
        stroke-miterlimit: 10;
      }

      .cls-2, .cls-3, .cls-5 {
        fill: #fff;
      }

      .cls-2, .cls-4 {
        stroke: #744400;
      }

      .cls-3, .cls-7 {
        stroke: #ad6916;
      }

      .cls-8 {
        fill: #83c557;
      }

      .cls-4 {
        fill: none;
      }

      .cls-5 {
        stroke: #e78c24;
      }

      .cls-5, .cls-6 {
        stroke-width: 2px;
      }

      .cls-9 {
        fill: #d34140;
      }

      .cls-6 {
        stroke: #fff;
      }

      .cls-6, .cls-7 {
        fill: #e78c24;
      }

      .cls-10 {
        fill: #0096d5;
      }
    </style>
  </defs>
  <g id="Layer_1-2" data-name="Layer 1">
    <g>
      <path class="cls-5" d="M103.03,18.07c-46.39,0-83.99,37.6-83.99,83.99s37.6,83.99,83.99,83.99,83.99-37.6,83.99-83.99S149.42,18.07,103.03,18.07ZM103.03,178.88c-42.42,0-76.81-34.39-76.81-76.81S60.61,25.26,103.03,25.26s76.81,34.39,76.81,76.81-34.39,76.81-76.81,76.81Z"/>
      <g>
        <circle class="cls-1" cx="39.34" cy="40.35" r="11.88"/>
        <circle class="cls-1" cx="168.17" cy="40.35" r="11.88"/>
        <circle class="cls-1" cx="39.34" cy="167.2" r="11.88"/>
        <circle class="cls-1" cx="168.17" cy="167.2" r="11.88"/>
        <circle class="cls-1" cx="13.38" cy="105.67" r="11.88"/>
        <circle class="cls-1" cx="103.25" cy="13.38" r="11.88"/>
        <circle class="cls-1" cx="104.26" cy="194.17" r="11.88"/>
        <circle class="cls-1" cx="194.14" cy="101.88" r="11.88"/>
      </g>
      <rect class="cls-6" x="89.55" y="88.58" width="26.96" height="26.96" transform="translate(-41.99 102.75) rotate(-45)"/>
      <g>
        <line class="cls-7" x1="103.03" y1="25.26" x2="103.03" y2="178.88"/>
        <rect class="cls-3" x="101.53" y="25.26" width="3" height="153.62"/>
      </g>
      <g>
        <line class="cls-7" x1="179.84" y1="102.07" x2="26.22" y2="102.07"/>
        <rect class="cls-3" x="26.22" y="100.57" width="153.62" height="3"/>
      </g>
      <g>
        <line class="cls-7" x1="157.35" y1="47.75" x2="48.72" y2="156.38"/>
        <rect class="cls-3" x="26.22" y="100.57" width="153.62" height="3" transform="translate(-41.99 102.75) rotate(-45)"/>
      </g>
      <g>
        <line class="cls-7" x1="157.35" y1="156.38" x2="48.72" y2="47.75"/>
        <rect class="cls-3" x="101.53" y="25.26" width="3" height="153.62" transform="translate(-41.99 102.75) rotate(-45)"/>
      </g>
      <g>
        <circle class="cls-4" cx="13.37" cy="105.52" r="11.88"/>
        <circle class="cls-9" cx="103.25" cy="13.38" r="5.69"/>
        <circle class="cls-9" cx="104.25" cy="194.17" r="5.69"/>
        <circle class="cls-10" cx="194.14" cy="102.03" r="5.69"/>
        <circle class="cls-10" cx="13.37" cy="105.52" r="5.69"/>
        <circle class="cls-4" cx="104.26" cy="194.17" r="11.88"/>
        <circle class="cls-4" cx="103.25" cy="13.38" r="11.88"/>
        <circle class="cls-4" cx="194.14" cy="102.03" r="11.88"/>
        <circle class="cls-2" cx="168.17" cy="40.35" r="5.69"/>
        <circle class="cls-2" cx="39.34" cy="167.2" r="5.69"/>
        <circle class="cls-4" cx="39.34" cy="167.2" r="11.88"/>
        <circle class="cls-4" cx="168.17" cy="40.35" r="11.88"/>
        <circle class="cls-8" cx="168.37" cy="167" r="5.69"/>
        <circle class="cls-8" cx="39.15" cy="40.54" r="5.69"/>
        <circle class="cls-4" cx="39.15" cy="40.55" r="11.88"/>
        <circle class="cls-4" cx="168.37" cy="167" r="11.88"/>
      </g>
    </g>
  </g>
</svg>